<?xml version="1.0" encoding="UTF-8" standalone="no"?>
<svg
   xmlns="http://www.w3.org/2000/svg"
   width="32"
   height="32"
   viewBox="0 0 32 32"
   version="1.1">
  <g transform="translate(0,-1020.3622)">
    <circle
       style="fill:#00b2a9;fill-opacity:1;stroke:none"
       cx="16"
       cy="1036.3622"
       r="16" />
    <path
       style="fill:#ffffff;fill-opacity:1;stroke:none"
       d="m 11.6,1029.3622 c -1.4,0 -2.6,1.2 -2.6,2.6 0,1.4 1.2,2.6 2.6,2.6 1.4,0 2.6,-1.2 2.6,-2.6 0,-1.4 -1.2,-2.6 -2.6,-2.6 z m 8.8,0 c -1.4,0 -2.6,1.2 -2.6,2.6 0,1.4 1.2,2.6 2.6,2.6 1.4,0 2.6,-1.2 2.6,-2.6 0,-1.4 -1.2,-2.6 -2.6,-2.6 z m -11.6,5.4 c -1.1,0 -2,0.9 -2,2 0,1.1 0.9,2 2,2 1.1,0 2,-0.9 2,-2 0,-1.1 -0.9,-2 -2,-2 z m 14.4,0 c -1.1,0 -2,0.9 -2,2 0,1.1 0.9,2 2,2 1.1,0 2,-0.9 2,-2 0,-1.1 -0.9,-2 -2,-2 z m -7.2,2.4 c -2.4,0 -5.6,1.8 -5.6,4 0,1.4 1.2,2.6 2.6,2.6 0.8,0 1.5,-0.4 2,-1 0.5,0.6 1.2,1 2,1 1.4,0 2.6,-1.2 2.6,-2.6 0,-2.2 -2.2,-4 -3.6,-4 z" />
  </g>
</svg>